<mxfile host="app.diagrams.net" modified="2022-08-26T02:21:18.797Z" agent="5.0 (Windows NT 10.0; Win64; x64) AppleWebKit/537.36 (KHTML, like Gecko) Chrome/103.0.5060.134 Safari/537.36 OPR/89.0.4447.104" etag="FQl_0PxAEu95CnXJpUDX" version="20.2.7" type="github">
  <diagram id="hwlJMOyPDP5wqU6_5wji" name="Page-1">
    <mxGraphModel dx="1394" dy="1875" grid="1" gridSize="10" guides="1" tooltips="1" connect="1" arrows="1" fold="1" page="1" pageScale="1" pageWidth="850" pageHeight="1100" math="0" shadow="0">
      <root>
        <mxCell id="0" />
        <mxCell id="1" parent="0" />
        <mxCell id="-HT_2JEnOdFQDWVn0aSA-1" value="" style="rounded=0;whiteSpace=wrap;html=1;" vertex="1" parent="1">
          <mxGeometry x="560" y="-520" width="560" height="40" as="geometry" />
        </mxCell>
        <mxCell id="-HT_2JEnOdFQDWVn0aSA-3" value="username" style="rounded=0;whiteSpace=wrap;html=1;" vertex="1" parent="1">
          <mxGeometry x="560" y="-520" width="80" height="40" as="geometry" />
        </mxCell>
        <mxCell id="-HT_2JEnOdFQDWVn0aSA-4" value="email" style="rounded=0;whiteSpace=wrap;html=1;" vertex="1" parent="1">
          <mxGeometry x="640" y="-520" width="80" height="40" as="geometry" />
        </mxCell>
        <mxCell id="-HT_2JEnOdFQDWVn0aSA-5" value="password" style="rounded=0;whiteSpace=wrap;html=1;" vertex="1" parent="1">
          <mxGeometry x="720" y="-520" width="80" height="40" as="geometry" />
        </mxCell>
        <mxCell id="-HT_2JEnOdFQDWVn0aSA-9" value="orgName" style="rounded=0;whiteSpace=wrap;html=1;" vertex="1" parent="1">
          <mxGeometry x="1040" y="-520" width="80" height="40" as="geometry" />
        </mxCell>
        <mxCell id="-HT_2JEnOdFQDWVn0aSA-13" value="routeName" style="rounded=0;whiteSpace=wrap;html=1;" vertex="1" parent="1">
          <mxGeometry x="1200" y="-520" width="80" height="40" as="geometry" />
        </mxCell>
        <mxCell id="-HT_2JEnOdFQDWVn0aSA-16" value="ministryName" style="rounded=0;whiteSpace=wrap;html=1;" vertex="1" parent="1">
          <mxGeometry x="1440" y="-520" width="80" height="40" as="geometry" />
        </mxCell>
        <mxCell id="-HT_2JEnOdFQDWVn0aSA-20" value="stationNo" style="rounded=0;whiteSpace=wrap;html=1;" vertex="1" parent="1">
          <mxGeometry x="1680" y="-400" width="80" height="40" as="geometry" />
        </mxCell>
        <mxCell id="-HT_2JEnOdFQDWVn0aSA-21" value="" style="endArrow=none;html=1;rounded=0;" edge="1" parent="1">
          <mxGeometry width="50" height="50" relative="1" as="geometry">
            <mxPoint x="568.75" y="-490" as="sourcePoint" />
            <mxPoint x="631.25" y="-490" as="targetPoint" />
          </mxGeometry>
        </mxCell>
        <mxCell id="-HT_2JEnOdFQDWVn0aSA-37" value="minID" style="rounded=0;whiteSpace=wrap;html=1;" vertex="1" parent="1">
          <mxGeometry x="800" y="-520" width="80" height="40" as="geometry" />
        </mxCell>
        <mxCell id="-HT_2JEnOdFQDWVn0aSA-40" value="orgID" style="rounded=0;whiteSpace=wrap;html=1;" vertex="1" parent="1">
          <mxGeometry x="880" y="-520" width="80" height="40" as="geometry" />
        </mxCell>
        <mxCell id="-HT_2JEnOdFQDWVn0aSA-53" value="" style="rounded=0;whiteSpace=wrap;html=1;" vertex="1" parent="1">
          <mxGeometry x="560" y="-400" width="1120" height="40" as="geometry" />
        </mxCell>
        <mxCell id="-HT_2JEnOdFQDWVn0aSA-55" value="date" style="rounded=0;whiteSpace=wrap;html=1;" vertex="1" parent="1">
          <mxGeometry x="640" y="-400" width="80" height="40" as="geometry" />
        </mxCell>
        <mxCell id="-HT_2JEnOdFQDWVn0aSA-56" value="time" style="rounded=0;whiteSpace=wrap;html=1;" vertex="1" parent="1">
          <mxGeometry x="720" y="-400" width="80" height="40" as="geometry" />
        </mxCell>
        <mxCell id="-HT_2JEnOdFQDWVn0aSA-57" value="" style="rounded=0;whiteSpace=wrap;html=1;" vertex="1" parent="1">
          <mxGeometry x="560" y="480" width="480" height="40" as="geometry" />
        </mxCell>
        <mxCell id="-HT_2JEnOdFQDWVn0aSA-61" value="latitude" style="rounded=0;whiteSpace=wrap;html=1;" vertex="1" parent="1">
          <mxGeometry x="1920" y="-400" width="80" height="40" as="geometry" />
        </mxCell>
        <mxCell id="-HT_2JEnOdFQDWVn0aSA-62" value="country" style="rounded=0;whiteSpace=wrap;html=1;" vertex="1" parent="1">
          <mxGeometry x="2160" y="-400" width="80" height="40" as="geometry" />
        </mxCell>
        <mxCell id="-HT_2JEnOdFQDWVn0aSA-63" value="longitude" style="rounded=0;whiteSpace=wrap;html=1;" vertex="1" parent="1">
          <mxGeometry x="2000" y="-400" width="80" height="40" as="geometry" />
        </mxCell>
        <mxCell id="-HT_2JEnOdFQDWVn0aSA-64" value="division" style="rounded=0;whiteSpace=wrap;html=1;" vertex="1" parent="1">
          <mxGeometry x="2080" y="-400" width="80" height="40" as="geometry" />
        </mxCell>
        <mxCell id="-HT_2JEnOdFQDWVn0aSA-65" value="season" style="rounded=0;whiteSpace=wrap;html=1;" vertex="1" parent="1">
          <mxGeometry x="800" y="-400" width="80" height="40" as="geometry" />
        </mxCell>
        <mxCell id="-HT_2JEnOdFQDWVn0aSA-66" value="pm25" style="rounded=0;whiteSpace=wrap;html=1;" vertex="1" parent="1">
          <mxGeometry x="880" y="-400" width="80" height="40" as="geometry" />
        </mxCell>
        <mxCell id="-HT_2JEnOdFQDWVn0aSA-67" value="rainPrec" style="rounded=0;whiteSpace=wrap;html=1;" vertex="1" parent="1">
          <mxGeometry x="960" y="-400" width="80" height="40" as="geometry" />
        </mxCell>
        <mxCell id="-HT_2JEnOdFQDWVn0aSA-68" value="windSpeed" style="rounded=0;whiteSpace=wrap;html=1;" vertex="1" parent="1">
          <mxGeometry x="1040" y="-400" width="80" height="40" as="geometry" />
        </mxCell>
        <mxCell id="-HT_2JEnOdFQDWVn0aSA-69" value="cloudCover" style="rounded=0;whiteSpace=wrap;html=1;" vertex="1" parent="1">
          <mxGeometry x="1120" y="-400" width="80" height="40" as="geometry" />
        </mxCell>
        <mxCell id="-HT_2JEnOdFQDWVn0aSA-70" value="relHumid" style="rounded=0;whiteSpace=wrap;html=1;" vertex="1" parent="1">
          <mxGeometry x="1200" y="-400" width="80" height="40" as="geometry" />
        </mxCell>
        <mxCell id="-HT_2JEnOdFQDWVn0aSA-71" value="visibility" style="rounded=0;whiteSpace=wrap;html=1;" vertex="1" parent="1">
          <mxGeometry x="1280" y="-400" width="80" height="40" as="geometry" />
        </mxCell>
        <mxCell id="-HT_2JEnOdFQDWVn0aSA-72" value="mean" style="rounded=0;whiteSpace=wrap;html=1;" vertex="1" parent="1">
          <mxGeometry x="1360" y="-400" width="80" height="40" as="geometry" />
        </mxCell>
        <mxCell id="-HT_2JEnOdFQDWVn0aSA-74" value="corpID" style="rounded=0;whiteSpace=wrap;html=1;" vertex="1" parent="1">
          <mxGeometry x="960" y="-520" width="80" height="40" as="geometry" />
        </mxCell>
        <mxCell id="-HT_2JEnOdFQDWVn0aSA-79" value="routeID" style="rounded=0;whiteSpace=wrap;html=1;" vertex="1" parent="1">
          <mxGeometry x="1120" y="-520" width="80" height="40" as="geometry" />
        </mxCell>
        <mxCell id="-HT_2JEnOdFQDWVn0aSA-88" value="locID" style="rounded=0;whiteSpace=wrap;html=1;" vertex="1" parent="1">
          <mxGeometry x="1840" y="-400" width="80" height="40" as="geometry" />
        </mxCell>
        <mxCell id="-HT_2JEnOdFQDWVn0aSA-94" value="routeID" style="rounded=0;whiteSpace=wrap;html=1;" vertex="1" parent="1">
          <mxGeometry x="1440" y="-400" width="80" height="40" as="geometry" />
        </mxCell>
        <mxCell id="-HT_2JEnOdFQDWVn0aSA-96" value="wInfoID" style="rounded=0;whiteSpace=wrap;html=1;" vertex="1" parent="1">
          <mxGeometry x="560" y="-400" width="80" height="40" as="geometry" />
        </mxCell>
        <mxCell id="-HT_2JEnOdFQDWVn0aSA-97" value="corpName" style="rounded=0;whiteSpace=wrap;html=1;" vertex="1" parent="1">
          <mxGeometry x="1280" y="-520" width="80" height="40" as="geometry" />
        </mxCell>
        <mxCell id="-HT_2JEnOdFQDWVn0aSA-98" value="comment" style="rounded=0;whiteSpace=wrap;html=1;" vertex="1" parent="1">
          <mxGeometry x="1360" y="-520" width="80" height="40" as="geometry" />
        </mxCell>
        <mxCell id="-HT_2JEnOdFQDWVn0aSA-99" value="" style="endArrow=none;html=1;rounded=0;" edge="1" parent="1">
          <mxGeometry width="50" height="50" relative="1" as="geometry">
            <mxPoint x="575" y="-370" as="sourcePoint" />
            <mxPoint x="625" y="-370" as="targetPoint" />
          </mxGeometry>
        </mxCell>
        <mxCell id="-HT_2JEnOdFQDWVn0aSA-102" value="stationID" style="rounded=0;whiteSpace=wrap;html=1;" vertex="1" parent="1">
          <mxGeometry x="1520" y="-400" width="80" height="40" as="geometry" />
        </mxCell>
        <mxCell id="-HT_2JEnOdFQDWVn0aSA-104" value="stationOwner" style="rounded=0;whiteSpace=wrap;html=1;" vertex="1" parent="1">
          <mxGeometry x="1760" y="-400" width="80" height="40" as="geometry" />
        </mxCell>
        <mxCell id="-HT_2JEnOdFQDWVn0aSA-106" value="locID" style="rounded=0;whiteSpace=wrap;html=1;" vertex="1" parent="1">
          <mxGeometry x="1600" y="-400" width="80" height="40" as="geometry" />
        </mxCell>
      </root>
    </mxGraphModel>
  </diagram>
</mxfile>
